<?xml version="1.0" encoding="utf-8"?>
<!-- Generator: Adobe Illustrator 27.7.0, SVG Export Plug-In . SVG Version: 6.00 Build 0)  -->
<svg version="1.1" id="Layer_1" xmlns="http://www.w3.org/2000/svg" xmlns:xlink="http://www.w3.org/1999/xlink" x="0px" y="0px"
	 viewBox="0 0 792 612" style="enable-background:new 0 0 792 612;" xml:space="preserve">
<style type="text/css">
	.st0{fill:none;stroke:#FF0000;stroke-width:7.200000e-02;stroke-linecap:round;stroke-linejoin:bevel;stroke-miterlimit:10;}
</style>
<g transform="matrix(1,0,0,1,0,0)">
</g>
<g transform="matrix(1,0,0,1,0,0)">
</g>
<g transform="matrix(1,0,0,1,0,0)">
	<polyline vector-effect="none" class="st0" points="73.9,164.9 73.7,164.9 73.5,164.9 73.3,164.9 73,164.9 72.8,164.9 72.6,165 
		72.4,165 72.2,165.1 71.9,165.1 71.7,165.1 71.5,165.2 71.3,165.3 71.1,165.3 70.9,165.4 70.7,165.5 70.5,165.6 70.3,165.7 
		70.1,165.7 69.9,165.8 69.7,165.9 69.5,166 69.3,166.2 69.1,166.3 68.9,166.4 68.7,166.5 68.6,166.7 68.4,166.8 68.2,166.9 
		68,167.1 67.9,167.2 67.7,167.4 67.6,167.5 67.4,167.7 67.2,167.8 67.1,168 67,168.2 66.8,168.3 66.7,168.5 66.6,168.7 66.4,168.9 
		66.3,169.1 66.2,169.3 66.1,169.4 66,169.6 65.9,169.8 65.8,170 65.7,170.2 65.6,170.4 65.5,170.6 65.4,170.8 65.4,171.1 
		65.3,171.3 65.2,171.5 65.2,171.7 65.1,171.9 65.1,172.1 65.1,172.3 65,172.6 65,172.8 65,173 64.9,173.2 64.9,173.4 64.9,173.7 
		64.9,173.9 	"/>
	<polyline vector-effect="none" class="st0" points="208.9,173.9 208.9,173.7 208.9,173.4 208.9,173.2 208.9,173 208.9,172.8 
		208.8,172.6 208.8,172.3 208.7,172.1 208.7,171.9 208.6,171.7 208.6,171.5 208.5,171.3 208.5,171.1 208.4,170.8 208.3,170.6 
		208.2,170.4 208.1,170.2 208.1,170 208,169.8 207.9,169.6 207.7,169.4 207.6,169.3 207.5,169.1 207.4,168.9 207.3,168.7 
		207.1,168.5 207,168.3 206.9,168.2 206.7,168 206.6,167.8 206.4,167.7 206.3,167.5 206.1,167.4 206,167.2 205.8,167.1 205.6,166.9 
		205.5,166.8 205.3,166.7 205.1,166.5 204.9,166.4 204.7,166.3 204.5,166.2 204.4,166 204.2,165.9 204,165.8 203.8,165.7 
		203.6,165.7 203.4,165.6 203.2,165.5 203,165.4 202.7,165.3 202.5,165.3 202.3,165.2 202.1,165.1 201.9,165.1 201.7,165.1 
		201.5,165 201.2,165 201,164.9 200.8,164.9 200.6,164.9 200.4,164.9 200.1,164.9 199.9,164.9 	"/>
	<polyline vector-effect="none" class="st0" points="199.9,290.9 200.1,290.9 200.4,290.9 200.6,290.9 200.8,290.8 201,290.8 
		201.2,290.8 201.5,290.7 201.7,290.7 201.9,290.7 202.1,290.6 202.3,290.6 202.5,290.5 202.7,290.4 203,290.4 203.2,290.3 
		203.4,290.2 203.6,290.1 203.8,290 204,289.9 204.2,289.8 204.4,289.7 204.5,289.6 204.7,289.5 204.9,289.4 205.1,289.2 
		205.3,289.1 205.5,289 205.6,288.8 205.8,288.7 206,288.5 206.1,288.4 206.3,288.2 206.4,288.1 206.6,287.9 206.7,287.8 
		206.9,287.6 207,287.4 207.1,287.2 207.3,287.1 207.4,286.9 207.5,286.7 207.6,286.5 207.7,286.3 207.9,286.1 208,285.9 
		208.1,285.7 208.1,285.5 208.2,285.3 208.3,285.1 208.4,284.9 208.5,284.7 208.5,284.5 208.6,284.3 208.6,284.1 208.7,283.9 
		208.7,283.6 208.8,283.4 208.8,283.2 208.9,283 208.9,282.8 208.9,282.5 208.9,282.3 208.9,282.1 208.9,281.9 	"/>
	<polyline vector-effect="none" class="st0" points="64.9,281.9 64.9,282.1 64.9,282.3 64.9,282.5 65,282.8 65,283 65,283.2 
		65.1,283.4 65.1,283.6 65.1,283.9 65.2,284.1 65.2,284.3 65.3,284.5 65.4,284.7 65.4,284.9 65.5,285.1 65.6,285.3 65.7,285.5 
		65.8,285.7 65.9,285.9 66,286.1 66.1,286.3 66.2,286.5 66.3,286.7 66.4,286.9 66.6,287.1 66.7,287.2 66.8,287.4 67,287.6 
		67.1,287.8 67.2,287.9 67.4,288.1 67.6,288.2 67.7,288.4 67.9,288.5 68,288.7 68.2,288.8 68.4,289 68.6,289.1 68.7,289.2 
		68.9,289.4 69.1,289.5 69.3,289.6 69.5,289.7 69.7,289.8 69.9,289.9 70.1,290 70.3,290.1 70.5,290.2 70.7,290.3 70.9,290.4 
		71.1,290.4 71.3,290.5 71.5,290.6 71.7,290.6 71.9,290.7 72.2,290.7 72.4,290.7 72.6,290.8 72.8,290.8 73,290.8 73.3,290.9 
		73.5,290.9 73.7,290.9 73.9,290.9 	"/>
	<line vector-effect="none" class="st0" x1="107.4" y1="218.9" x2="163.9" y2="218.9"/>
	<line vector-effect="none" class="st0" x1="199.9" y1="290.9" x2="73.9" y2="290.9"/>
	<polyline vector-effect="none" class="st0" points="177.3,256.8 177.3,256.7 177.3,256.6 177.3,256.5 177.3,256.3 177.3,256.2 
		177.3,256.1 177.2,256 177.2,255.9 177.2,255.8 177.2,255.6 177.1,255.5 177.1,255.4 177,255.3 177,255.2 177,255.1 176.9,255 
		176.9,254.9 176.8,254.8 176.7,254.7 176.7,254.6 176.6,254.5 176.6,254.4 176.5,254.3 176.4,254.2 176.3,254.1 176.3,254 
		176.2,253.9 176.1,253.8 176,253.7 175.9,253.6 175.9,253.5 175.8,253.5 175.7,253.4 175.6,253.3 175.5,253.2 175.4,253.2 
		175.3,253.1 175.2,253 175.1,253 175,252.9 174.9,252.9 174.8,252.8 174.7,252.8 174.6,252.7 174.5,252.7 174.3,252.6 174.2,252.6 
		174.1,252.6 174,252.5 173.9,252.5 173.8,252.5 173.7,252.5 173.5,252.4 173.4,252.4 173.3,252.4 173.2,252.4 173.1,252.4 
		172.9,252.4 172.8,252.4 172.7,252.4 172.6,252.4 172.5,252.4 172.3,252.4 172.2,252.4 172.1,252.5 172,252.5 171.9,252.5 
		171.8,252.5 171.7,252.6 171.5,252.6 171.4,252.6 171.3,252.7 171.2,252.7 171.1,252.8 171,252.8 170.9,252.9 170.8,252.9 
		170.7,253 170.6,253 170.5,253.1 170.4,253.2 170.3,253.2 170.2,253.3 170.1,253.4 170,253.5 169.9,253.5 169.8,253.6 169.7,253.7 
		169.6,253.8 169.6,253.9 169.5,254 169.4,254.1 169.3,254.2 169.3,254.3 169.2,254.4 169.1,254.5 169.1,254.6 169,254.7 169,254.8 
		168.9,254.9 168.9,255 168.8,255.1 168.8,255.2 168.7,255.3 168.7,255.4 168.6,255.5 168.6,255.6 168.6,255.8 168.6,255.9 
		168.5,256 168.5,256.1 168.5,256.2 168.5,256.3 168.5,256.5 168.5,256.6 168.5,256.7 168.5,256.8 168.5,256.9 168.5,257.1 
		168.5,257.2 168.5,257.3 168.5,257.4 168.5,257.5 168.5,257.7 168.6,257.8 168.6,257.9 168.6,258 168.6,258.1 168.7,258.2 
		168.7,258.3 168.8,258.4 168.8,258.6 168.9,258.7 168.9,258.8 169,258.9 169,259 169.1,259.1 169.1,259.2 169.2,259.3 169.3,259.4 
		169.3,259.5 169.4,259.6 169.5,259.7 169.6,259.8 169.6,259.8 169.7,259.9 169.8,260 169.9,260.1 170,260.2 170.1,260.3 
		170.2,260.3 170.3,260.4 170.4,260.5 170.5,260.5 170.6,260.6 170.7,260.7 170.8,260.7 170.9,260.8 171,260.8 171.1,260.9 
		171.2,260.9 171.3,261 171.4,261 171.5,261 171.7,261.1 171.8,261.1 171.9,261.1 172,261.2 172.1,261.2 172.2,261.2 172.3,261.2 
		172.5,261.2 172.6,261.2 172.7,261.2 172.8,261.3 172.9,261.3 173.1,261.2 173.2,261.2 173.3,261.2 173.4,261.2 173.5,261.2 
		173.7,261.2 173.8,261.2 173.9,261.1 174,261.1 174.1,261.1 174.2,261 174.3,261 174.5,261 174.6,260.9 174.7,260.9 174.8,260.8 
		174.9,260.8 175,260.7 175.1,260.7 175.2,260.6 175.3,260.5 175.4,260.5 175.5,260.4 175.6,260.3 175.7,260.3 175.8,260.2 
		175.9,260.1 175.9,260 176,259.9 176.1,259.8 176.2,259.8 176.3,259.7 176.3,259.6 176.4,259.5 176.5,259.4 176.6,259.3 
		176.6,259.2 176.7,259.1 176.7,259 176.8,258.9 176.9,258.8 176.9,258.7 177,258.6 177,258.4 177,258.3 177.1,258.2 177.1,258.1 
		177.2,258 177.2,257.9 177.2,257.8 177.2,257.7 177.3,257.5 177.3,257.4 177.3,257.3 177.3,257.2 177.3,257.1 177.3,256.9 
		177.3,256.8 	"/>
	<polyline vector-effect="none" class="st0" points="103.7,199.1 103.7,199 103.7,198.8 103.7,198.7 103.7,198.6 103.7,198.5 
		103.7,198.4 103.6,198.3 103.6,198.1 103.6,198 103.6,197.9 103.5,197.8 103.5,197.7 103.5,197.6 103.4,197.5 103.4,197.3 
		103.3,197.2 103.3,197.1 103.2,197 103.2,196.9 103.1,196.8 103,196.7 103,196.6 102.9,196.5 102.8,196.4 102.8,196.3 102.7,196.2 
		102.6,196.1 102.5,196.1 102.4,196 102.4,195.9 102.3,195.8 102.2,195.7 102.1,195.6 102,195.6 101.9,195.5 101.8,195.4 
		101.7,195.4 101.6,195.3 101.5,195.2 101.4,195.2 101.3,195.1 101.2,195.1 101.1,195 101,195 100.9,194.9 100.8,194.9 100.6,194.9 
		100.5,194.8 100.4,194.8 100.3,194.8 100.2,194.7 100.1,194.7 99.9,194.7 99.8,194.7 99.7,194.7 99.6,194.7 99.5,194.7 99.4,194.7 
		99.2,194.7 99.1,194.7 99,194.7 98.9,194.7 98.8,194.7 98.6,194.7 98.5,194.7 98.4,194.7 98.3,194.8 98.2,194.8 98.1,194.8 
		98,194.9 97.8,194.9 97.7,194.9 97.6,195 97.5,195 97.4,195.1 97.3,195.1 97.2,195.2 97.1,195.2 97,195.3 96.9,195.4 96.8,195.4 
		96.7,195.5 96.6,195.6 96.5,195.6 96.4,195.7 96.3,195.8 96.2,195.9 96.1,196 96.1,196.1 96,196.1 95.9,196.2 95.8,196.3 
		95.8,196.4 95.7,196.5 95.6,196.6 95.6,196.7 95.5,196.8 95.4,196.9 95.4,197 95.3,197.1 95.3,197.2 95.2,197.3 95.2,197.5 
		95.1,197.6 95.1,197.7 95.1,197.8 95,197.9 95,198 95,198.1 94.9,198.3 94.9,198.4 94.9,198.5 94.9,198.6 94.9,198.7 94.9,198.8 
		94.9,199 94.9,199.1 94.9,199.2 94.9,199.3 94.9,199.4 94.9,199.6 94.9,199.7 94.9,199.8 94.9,199.9 95,200 95,200.1 95,200.3 
		95.1,200.4 95.1,200.5 95.1,200.6 95.2,200.7 95.2,200.8 95.3,200.9 95.3,201 95.4,201.1 95.4,201.2 95.5,201.3 95.6,201.4 
		95.6,201.5 95.7,201.6 95.8,201.7 95.8,201.8 95.9,201.9 96,202 96.1,202.1 96.1,202.2 96.2,202.3 96.3,202.4 96.4,202.4 
		96.5,202.5 96.6,202.6 96.7,202.7 96.8,202.7 96.9,202.8 97,202.9 97.1,202.9 97.2,203 97.3,203 97.4,203.1 97.5,203.1 97.6,203.2 
		97.7,203.2 97.8,203.3 98,203.3 98.1,203.3 98.2,203.4 98.3,203.4 98.4,203.4 98.5,203.4 98.6,203.5 98.8,203.5 98.9,203.5 
		99,203.5 99.1,203.5 99.2,203.5 99.4,203.5 99.5,203.5 99.6,203.5 99.7,203.5 99.8,203.5 99.9,203.5 100.1,203.4 100.2,203.4 
		100.3,203.4 100.4,203.4 100.5,203.3 100.6,203.3 100.8,203.3 100.9,203.2 101,203.2 101.1,203.1 101.2,203.1 101.3,203 101.4,203 
		101.5,202.9 101.6,202.9 101.7,202.8 101.8,202.7 101.9,202.7 102,202.6 102.1,202.5 102.2,202.4 102.3,202.4 102.4,202.3 
		102.4,202.2 102.5,202.1 102.6,202 102.7,201.9 102.8,201.8 102.8,201.7 102.9,201.6 103,201.5 103,201.4 103.1,201.3 103.2,201.2 
		103.2,201.1 103.3,201 103.3,200.9 103.4,200.8 103.4,200.7 103.5,200.6 103.5,200.5 103.5,200.4 103.6,200.3 103.6,200.1 
		103.6,200 103.6,199.9 103.7,199.8 103.7,199.7 103.7,199.6 103.7,199.4 103.7,199.3 103.7,199.2 103.7,199.1 	"/>
	<polyline vector-effect="none" class="st0" points="199.8,178.4 199.8,178.3 199.8,178.1 199.8,178 199.8,177.9 199.8,177.8 
		199.8,177.7 199.8,177.6 199.7,177.4 199.7,177.3 199.7,177.2 199.7,177.1 199.6,177 199.6,176.9 199.5,176.8 199.5,176.6 
		199.4,176.5 199.4,176.4 199.3,176.3 199.3,176.2 199.2,176.1 199.2,176 199.1,175.9 199,175.8 199,175.7 198.9,175.6 198.8,175.5 
		198.7,175.4 198.7,175.4 198.6,175.3 198.5,175.2 198.4,175.1 198.3,175 198.2,174.9 198.1,174.9 198,174.8 197.9,174.7 
		197.8,174.7 197.7,174.6 197.6,174.5 197.5,174.5 197.4,174.4 197.3,174.4 197.2,174.3 197.1,174.3 197,174.2 196.9,174.2 
		196.8,174.2 196.6,174.1 196.5,174.1 196.4,174.1 196.3,174 196.2,174 196.1,174 196,174 195.8,174 195.7,174 195.6,174 195.5,174 
		195.4,174 195.2,174 195.1,174 195,174 194.9,174 194.8,174 194.6,174 194.5,174 194.4,174.1 194.3,174.1 194.2,174.1 194.1,174.2 
		194,174.2 193.8,174.2 193.7,174.3 193.6,174.3 193.5,174.4 193.4,174.4 193.3,174.5 193.2,174.5 193.1,174.6 193,174.7 
		192.9,174.7 192.8,174.8 192.7,174.9 192.6,174.9 192.5,175 192.4,175.1 192.4,175.2 192.3,175.3 192.2,175.4 192.1,175.4 
		192,175.5 191.9,175.6 191.9,175.7 191.8,175.8 191.7,175.9 191.7,176 191.6,176.1 191.6,176.2 191.5,176.3 191.4,176.4 
		191.4,176.5 191.3,176.6 191.3,176.8 191.3,176.9 191.2,177 191.2,177.1 191.1,177.2 191.1,177.3 191.1,177.4 191.1,177.6 
		191,177.7 191,177.8 191,177.9 191,178 191,178.1 191,178.3 191,178.4 191,178.5 191,178.6 191,178.7 191,178.9 191,179 191,179.1 
		191.1,179.2 191.1,179.3 191.1,179.4 191.1,179.6 191.2,179.7 191.2,179.8 191.3,179.9 191.3,180 191.3,180.1 191.4,180.2 
		191.4,180.3 191.5,180.4 191.6,180.5 191.6,180.6 191.7,180.7 191.7,180.8 191.8,180.9 191.9,181 191.9,181.1 192,181.2 
		192.1,181.3 192.2,181.4 192.3,181.5 192.4,181.6 192.4,181.7 192.5,181.7 192.6,181.8 192.7,181.9 192.8,182 192.9,182 193,182.1 
		193.1,182.2 193.2,182.2 193.3,182.3 193.4,182.3 193.5,182.4 193.6,182.4 193.7,182.5 193.8,182.5 194,182.6 194.1,182.6 
		194.2,182.6 194.3,182.7 194.4,182.7 194.5,182.7 194.6,182.7 194.8,182.8 194.9,182.8 195,182.8 195.1,182.8 195.2,182.8 
		195.4,182.8 195.5,182.8 195.6,182.8 195.7,182.8 195.8,182.8 196,182.8 196.1,182.8 196.2,182.7 196.3,182.7 196.4,182.7 
		196.5,182.7 196.6,182.6 196.8,182.6 196.9,182.6 197,182.5 197.1,182.5 197.2,182.4 197.3,182.4 197.4,182.3 197.5,182.3 
		197.6,182.2 197.7,182.2 197.8,182.1 197.9,182 198,182 198.1,181.9 198.2,181.8 198.3,181.7 198.4,181.7 198.5,181.6 198.6,181.5 
		198.7,181.4 198.7,181.3 198.8,181.2 198.9,181.1 199,181 199,180.9 199.1,180.8 199.2,180.7 199.2,180.6 199.3,180.5 199.3,180.4 
		199.4,180.3 199.4,180.2 199.5,180.1 199.5,180 199.6,179.9 199.6,179.8 199.7,179.7 199.7,179.6 199.7,179.4 199.7,179.3 
		199.8,179.2 199.8,179.1 199.8,179 199.8,178.9 199.8,178.7 199.8,178.6 199.8,178.5 199.8,178.4 	"/>
	<line vector-effect="none" class="st0" x1="107.4" y1="236.9" x2="107.4" y2="277.4"/>
	<line vector-effect="none" class="st0" x1="64.9" y1="173.9" x2="64.9" y2="281.9"/>
	<line vector-effect="none" class="st0" x1="199.9" y1="164.9" x2="73.9" y2="164.9"/>
	<line vector-effect="none" class="st0" x1="208.9" y1="173.9" x2="208.9" y2="281.9"/>
	<line vector-effect="none" class="st0" x1="107.4" y1="277.4" x2="163.9" y2="277.4"/>
	<line vector-effect="none" class="st0" x1="163.9" y1="236.9" x2="163.9" y2="277.4"/>
	<line vector-effect="none" class="st0" x1="107.4" y1="236.9" x2="163.9" y2="236.9"/>
	<line vector-effect="none" class="st0" x1="163.9" y1="178.4" x2="163.9" y2="218.9"/>
	<line vector-effect="none" class="st0" x1="107.4" y1="178.4" x2="163.9" y2="178.4"/>
	<line vector-effect="none" class="st0" x1="107.4" y1="178.4" x2="107.4" y2="218.9"/>
</g>
<g transform="matrix(1,0,0,1,0,0)">
</g>
</svg>
