<?xml version="1.0" encoding="utf-8"?>
<!-- Generator: Adobe Illustrator 27.7.0, SVG Export Plug-In . SVG Version: 6.00 Build 0)  -->
<svg version="1.1" id="Layer_1" xmlns="http://www.w3.org/2000/svg" xmlns:xlink="http://www.w3.org/1999/xlink" x="0px" y="0px"
	 viewBox="0 0 792 612" style="enable-background:new 0 0 792 612;" xml:space="preserve">
<style type="text/css">
	.st0{fill:none;stroke:#FF0000;stroke-width:7.200000e-02;stroke-linecap:round;stroke-linejoin:bevel;stroke-miterlimit:10;}
</style>
<g transform="matrix(1,0,0,1,0,0)">
</g>
<g transform="matrix(1,0,0,1,0,0)">
</g>
<g transform="matrix(1,0,0,1,0,0)">
	<polyline vector-effect="none" class="st0" points="229.9,297.7 229.9,297.9 229.9,298.1 229.9,298.3 229.8,298.5 229.8,298.8 
		229.8,299 229.7,299.2 229.7,299.4 229.7,299.6 229.6,299.8 229.6,300.1 229.5,300.3 229.4,300.5 229.4,300.7 229.3,300.9 
		229.2,301.1 229.1,301.3 229,301.5 228.9,301.7 228.8,301.9 228.7,302.1 228.6,302.3 228.5,302.5 228.4,302.7 228.2,302.8 
		228.1,303 228,303.2 227.8,303.4 227.7,303.5 227.6,303.7 227.4,303.9 227.2,304 227.1,304.2 226.9,304.3 226.8,304.5 226.6,304.6 
		226.4,304.8 226.2,304.9 226.1,305 225.9,305.1 225.7,305.3 225.5,305.4 225.3,305.5 225.1,305.6 224.9,305.7 224.7,305.8 
		224.5,305.9 224.3,306 224.1,306.1 223.9,306.1 223.7,306.2 223.5,306.3 223.3,306.3 223.1,306.4 222.9,306.4 222.6,306.5 
		222.4,306.5 222.2,306.6 222,306.6 221.8,306.6 221.5,306.6 221.3,306.6 221.1,306.7 220.9,306.7 	"/>
	<polyline vector-effect="none" class="st0" points="220.9,225.6 221.1,225.6 221.3,225.6 221.5,225.6 221.8,225.7 222,225.7 
		222.2,225.7 222.4,225.8 222.6,225.8 222.9,225.8 223.1,225.9 223.3,226 223.5,226 223.7,226.1 223.9,226.2 224.1,226.2 
		224.3,226.3 224.5,226.4 224.7,226.5 224.9,226.6 225.1,226.7 225.3,226.8 225.5,226.9 225.7,227 225.9,227.1 226.1,227.3 
		226.2,227.4 226.4,227.5 226.6,227.7 226.8,227.8 226.9,228 227.1,228.1 227.2,228.3 227.4,228.4 227.6,228.6 227.7,228.7 
		227.8,228.9 228,229.1 228.1,229.3 228.2,229.4 228.4,229.6 228.5,229.8 228.6,230 228.7,230.2 228.8,230.4 228.9,230.6 229,230.8 
		229.1,231 229.2,231.2 229.3,231.4 229.4,231.6 229.4,231.8 229.5,232 229.6,232.2 229.6,232.4 229.7,232.7 229.7,232.9 
		229.7,233.1 229.8,233.3 229.8,233.5 229.8,233.7 229.9,234 229.9,234.2 229.9,234.4 229.9,234.6 	"/>
	<polyline vector-effect="none" class="st0" points="99.4,216.6 99.4,216.8 99.4,217.1 99.4,217.3 99.4,217.5 99.4,217.7 
		99.5,217.9 99.5,218.2 99.6,218.4 99.6,218.6 99.7,218.8 99.7,219 99.8,219.2 99.8,219.4 99.9,219.7 100,219.9 100.1,220.1 
		100.2,220.3 100.2,220.5 100.3,220.7 100.4,220.9 100.6,221.1 100.7,221.3 100.8,221.4 100.9,221.6 101,221.8 101.2,222 
		101.3,222.2 101.4,222.3 101.6,222.5 101.7,222.7 101.9,222.8 102,223 102.2,223.1 102.3,223.3 102.5,223.4 102.7,223.6 
		102.8,223.7 103,223.9 103.2,224 103.4,224.1 103.6,224.2 103.8,224.3 103.9,224.5 104.1,224.6 104.3,224.7 104.5,224.8 
		104.7,224.9 104.9,224.9 105.1,225 105.4,225.1 105.6,225.2 105.8,225.2 106,225.3 106.2,225.4 106.4,225.4 106.6,225.5 
		106.8,225.5 107.1,225.5 107.3,225.6 107.5,225.6 107.7,225.6 107.9,225.6 108.2,225.6 108.4,225.6 	"/>
	<polyline vector-effect="none" class="st0" points="108.4,203.2 108.2,203.2 107.9,203.2 107.7,203.2 107.5,203.2 107.3,203.2 
		107.1,203.3 106.8,203.3 106.6,203.3 106.4,203.4 106.2,203.4 106,203.5 105.8,203.5 105.6,203.6 105.4,203.7 105.1,203.8 
		104.9,203.8 104.7,203.9 104.5,204 104.3,204.1 104.1,204.2 103.9,204.3 103.8,204.4 103.6,204.6 103.4,204.7 103.2,204.8 
		103,204.9 102.8,205.1 102.7,205.2 102.5,205.3 102.3,205.5 102.2,205.6 102,205.8 101.9,206 101.7,206.1 101.6,206.3 101.4,206.5 
		101.3,206.6 101.2,206.8 101,207 100.9,207.2 100.8,207.3 100.7,207.5 100.6,207.7 100.4,207.9 100.3,208.1 100.2,208.3 
		100.2,208.5 100.1,208.7 100,208.9 99.9,209.1 99.8,209.3 99.8,209.5 99.7,209.8 99.7,210 99.6,210.2 99.6,210.4 99.5,210.6 
		99.5,210.8 99.4,211.1 99.4,211.3 99.4,211.5 99.4,211.7 99.4,211.9 99.4,212.2 	"/>
	<polyline vector-effect="none" class="st0" points="243.4,212.2 243.4,211.9 243.4,211.7 243.4,211.5 243.3,211.3 243.3,211.1 
		243.3,210.8 243.2,210.6 243.2,210.4 243.2,210.2 243.1,210 243.1,209.8 243,209.5 242.9,209.3 242.9,209.1 242.8,208.9 
		242.7,208.7 242.6,208.5 242.5,208.3 242.4,208.1 242.3,207.9 242.2,207.7 242.1,207.5 242,207.3 241.9,207.2 241.7,207 
		241.6,206.8 241.5,206.6 241.3,206.5 241.2,206.3 241.1,206.1 240.9,206 240.7,205.8 240.6,205.6 240.4,205.5 240.3,205.3 
		240.1,205.2 239.9,205.1 239.7,204.9 239.6,204.8 239.4,204.7 239.2,204.6 239,204.4 238.8,204.3 238.6,204.2 238.4,204.1 
		238.2,204 238,203.9 237.8,203.8 237.6,203.8 237.4,203.7 237.2,203.6 237,203.5 236.8,203.5 236.6,203.4 236.4,203.4 236.1,203.3 
		235.9,203.3 235.7,203.3 235.5,203.2 235.3,203.2 235,203.2 234.8,203.2 234.6,203.2 234.4,203.2 	"/>
	<polyline vector-effect="none" class="st0" points="234.4,329.2 234.6,329.2 234.8,329.1 235,329.1 235.3,329.1 235.5,329.1 
		235.7,329.1 235.9,329 236.1,329 236.4,328.9 236.6,328.9 236.8,328.8 237,328.8 237.2,328.7 237.4,328.6 237.6,328.6 237.8,328.5 
		238,328.4 238.2,328.3 238.4,328.2 238.6,328.1 238.8,328 239,327.9 239.2,327.8 239.4,327.6 239.6,327.5 239.7,327.4 239.9,327.3 
		240.1,327.1 240.3,327 240.4,326.8 240.6,326.7 240.7,326.5 240.9,326.4 241.1,326.2 241.2,326 241.3,325.9 241.5,325.7 
		241.6,325.5 241.7,325.3 241.9,325.2 242,325 242.1,324.8 242.2,324.6 242.3,324.4 242.4,324.2 242.5,324 242.6,323.8 242.7,323.6 
		242.8,323.4 242.9,323.2 242.9,323 243,322.8 243.1,322.6 243.1,322.3 243.2,322.1 243.2,321.9 243.2,321.7 243.3,321.5 
		243.3,321.3 243.3,321 243.4,320.8 243.4,320.6 243.4,320.4 243.4,320.2 	"/>
	<polyline vector-effect="none" class="st0" points="99.4,320.2 99.4,320.4 99.4,320.6 99.4,320.8 99.4,321 99.4,321.3 99.5,321.5 
		99.5,321.7 99.6,321.9 99.6,322.1 99.7,322.3 99.7,322.6 99.8,322.8 99.8,323 99.9,323.2 100,323.4 100.1,323.6 100.2,323.8 
		100.2,324 100.3,324.2 100.4,324.4 100.6,324.6 100.7,324.8 100.8,325 100.9,325.2 101,325.3 101.2,325.5 101.3,325.7 101.4,325.9 
		101.6,326 101.7,326.2 101.9,326.4 102,326.5 102.2,326.7 102.3,326.8 102.5,327 102.7,327.1 102.8,327.3 103,327.4 103.2,327.5 
		103.4,327.6 103.6,327.8 103.8,327.9 103.9,328 104.1,328.1 104.3,328.2 104.5,328.3 104.7,328.4 104.9,328.5 105.1,328.6 
		105.4,328.6 105.6,328.7 105.8,328.8 106,328.8 106.2,328.9 106.4,328.9 106.6,329 106.8,329 107.1,329.1 107.3,329.1 107.5,329.1 
		107.7,329.1 107.9,329.1 108.2,329.2 108.4,329.2 	"/>
	<polyline vector-effect="none" class="st0" points="108.4,306.7 108.2,306.7 107.9,306.7 107.7,306.7 107.5,306.7 107.3,306.7 
		107.1,306.8 106.8,306.8 106.6,306.8 106.4,306.9 106.2,306.9 106,307 105.8,307 105.6,307.1 105.4,307.2 105.1,307.3 104.9,307.3 
		104.7,307.4 104.5,307.5 104.3,307.6 104.1,307.7 103.9,307.8 103.8,307.9 103.6,308.1 103.4,308.2 103.2,308.3 103,308.4 
		102.8,308.6 102.7,308.7 102.5,308.8 102.3,309 102.2,309.1 102,309.3 101.9,309.5 101.7,309.6 101.6,309.8 101.4,310 101.3,310.1 
		101.2,310.3 101,310.5 100.9,310.7 100.8,310.8 100.7,311 100.6,311.2 100.4,311.4 100.3,311.6 100.2,311.8 100.2,312 100.1,312.2 
		100,312.4 99.9,312.6 99.8,312.8 99.8,313 99.7,313.3 99.7,313.5 99.6,313.7 99.6,313.9 99.5,314.1 99.5,314.3 99.4,314.6 
		99.4,314.8 99.4,315 99.4,315.2 99.4,315.4 99.4,315.7 	"/>
	<line vector-effect="none" class="st0" x1="234.4" y1="329.2" x2="108.4" y2="329.2"/>
	<polyline vector-effect="none" class="st0" points="117.4,315.7 117.4,315.5 117.4,315.4 117.4,315.3 117.4,315.2 117.3,315.1 
		117.3,314.9 117.3,314.8 117.3,314.7 117.3,314.6 117.2,314.5 117.2,314.4 117.2,314.2 117.1,314.1 117.1,314 117,313.9 117,313.8 
		116.9,313.7 116.9,313.6 116.8,313.5 116.8,313.4 116.7,313.3 116.6,313.2 116.6,313.1 116.5,313 116.4,312.9 116.3,312.8 
		116.3,312.7 116.2,312.6 116.1,312.5 116,312.4 115.9,312.4 115.8,312.3 115.8,312.2 115.7,312.1 115.6,312 115.5,312 115.4,311.9 
		115.3,311.8 115.2,311.8 115.1,311.7 115,311.7 114.8,311.6 114.7,311.6 114.6,311.5 114.5,311.5 114.4,311.4 114.3,311.4 
		114.2,311.4 114.1,311.3 113.9,311.3 113.8,311.3 113.7,311.2 113.6,311.2 113.5,311.2 113.4,311.2 113.2,311.2 113.1,311.2 
		113,311.2 112.9,311.2 112.8,311.2 112.6,311.2 112.5,311.2 112.4,311.2 112.3,311.2 112.2,311.2 112,311.2 111.9,311.3 
		111.8,311.3 111.7,311.3 111.6,311.4 111.5,311.4 111.4,311.4 111.2,311.5 111.1,311.5 111,311.6 110.9,311.6 110.8,311.7 
		110.7,311.7 110.6,311.8 110.5,311.8 110.4,311.9 110.3,312 110.2,312 110.1,312.1 110,312.2 109.9,312.3 109.8,312.4 109.7,312.4 
		109.7,312.5 109.6,312.6 109.5,312.7 109.4,312.8 109.3,312.9 109.3,313 109.2,313.1 109.1,313.2 109.1,313.3 109,313.4 
		108.9,313.5 108.9,313.6 108.8,313.7 108.8,313.8 108.7,313.9 108.7,314 108.6,314.1 108.6,314.2 108.6,314.4 108.5,314.5 
		108.5,314.6 108.5,314.7 108.5,314.8 108.4,314.9 108.4,315.1 108.4,315.2 108.4,315.3 108.4,315.4 108.4,315.5 108.4,315.7 
		108.4,315.8 108.4,315.9 108.4,316 108.4,316.1 108.4,316.3 108.4,316.4 108.5,316.5 108.5,316.6 108.5,316.7 108.5,316.8 
		108.6,317 108.6,317.1 108.6,317.2 108.7,317.3 108.7,317.4 108.8,317.5 108.8,317.6 108.9,317.7 108.9,317.8 109,317.9 109.1,318 
		109.1,318.1 109.2,318.2 109.3,318.3 109.3,318.4 109.4,318.5 109.5,318.6 109.6,318.7 109.7,318.8 109.7,318.9 109.8,319 
		109.9,319 110,319.1 110.1,319.2 110.2,319.3 110.3,319.3 110.4,319.4 110.5,319.5 110.6,319.5 110.7,319.6 110.8,319.7 
		110.9,319.7 111,319.8 111.1,319.8 111.2,319.9 111.4,319.9 111.5,319.9 111.6,320 111.7,320 111.8,320 111.9,320.1 112,320.1 
		112.2,320.1 112.3,320.1 112.4,320.1 112.5,320.1 112.6,320.2 112.8,320.2 112.9,320.2 113,320.2 113.1,320.2 113.2,320.1 
		113.4,320.1 113.5,320.1 113.6,320.1 113.7,320.1 113.8,320.1 113.9,320 114.1,320 114.2,320 114.3,319.9 114.4,319.9 114.5,319.9 
		114.6,319.8 114.7,319.8 114.8,319.7 115,319.7 115.1,319.6 115.2,319.5 115.3,319.5 115.4,319.4 115.5,319.3 115.6,319.3 
		115.7,319.2 115.8,319.1 115.8,319 115.9,319 116,318.9 116.1,318.8 116.2,318.7 116.3,318.6 116.3,318.5 116.4,318.4 116.5,318.3 
		116.6,318.2 116.6,318.1 116.7,318 116.8,317.9 116.8,317.8 116.9,317.7 116.9,317.6 117,317.5 117,317.4 117.1,317.3 117.1,317.2 
		117.2,317.1 117.2,317 117.2,316.8 117.3,316.7 117.3,316.6 117.3,316.5 117.3,316.4 117.3,316.3 117.4,316.1 117.4,316 
		117.4,315.9 117.4,315.8 117.4,315.7 	"/>
	<polyline vector-effect="none" class="st0" points="234.4,216.7 234.4,216.5 234.4,216.4 234.4,216.3 234.4,216.2 234.3,216.1 
		234.3,215.9 234.3,215.8 234.3,215.7 234.3,215.6 234.2,215.5 234.2,215.4 234.2,215.2 234.1,215.1 234.1,215 234,214.9 234,214.8 
		233.9,214.7 233.9,214.6 233.8,214.5 233.8,214.4 233.7,214.3 233.6,214.2 233.6,214.1 233.5,214 233.4,213.9 233.3,213.8 
		233.3,213.7 233.2,213.6 233.1,213.5 233,213.4 232.9,213.4 232.8,213.3 232.8,213.2 232.7,213.1 232.6,213 232.5,213 232.4,212.9 
		232.3,212.8 232.2,212.8 232.1,212.7 232,212.7 231.8,212.6 231.7,212.6 231.6,212.5 231.5,212.5 231.4,212.4 231.3,212.4 
		231.2,212.4 231.1,212.3 230.9,212.3 230.8,212.3 230.7,212.2 230.6,212.2 230.5,212.2 230.4,212.2 230.2,212.2 230.1,212.2 
		230,212.2 229.9,212.2 229.8,212.2 229.6,212.2 229.5,212.2 229.4,212.2 229.3,212.2 229.2,212.2 229,212.2 228.9,212.3 
		228.8,212.3 228.7,212.3 228.6,212.4 228.5,212.4 228.4,212.4 228.2,212.5 228.1,212.5 228,212.6 227.9,212.6 227.8,212.7 
		227.7,212.7 227.6,212.8 227.5,212.8 227.4,212.9 227.3,213 227.2,213 227.1,213.1 227,213.2 226.9,213.3 226.8,213.4 226.7,213.4 
		226.7,213.5 226.6,213.6 226.5,213.7 226.4,213.8 226.3,213.9 226.3,214 226.2,214.1 226.1,214.2 226.1,214.3 226,214.4 
		225.9,214.5 225.9,214.6 225.8,214.7 225.8,214.8 225.7,214.9 225.7,215 225.6,215.1 225.6,215.2 225.6,215.4 225.5,215.5 
		225.5,215.6 225.5,215.7 225.5,215.8 225.4,215.9 225.4,216.1 225.4,216.2 225.4,216.3 225.4,216.4 225.4,216.5 225.4,216.7 
		225.4,216.8 225.4,216.9 225.4,217 225.4,217.1 225.4,217.3 225.4,217.4 225.5,217.5 225.5,217.6 225.5,217.7 225.5,217.8 
		225.6,218 225.6,218.1 225.6,218.2 225.7,218.3 225.7,218.4 225.8,218.5 225.8,218.6 225.9,218.7 225.9,218.8 226,218.9 226.1,219 
		226.1,219.1 226.2,219.2 226.3,219.3 226.3,219.4 226.4,219.5 226.5,219.6 226.6,219.7 226.7,219.8 226.7,219.9 226.8,220 
		226.9,220 227,220.1 227.1,220.2 227.2,220.3 227.3,220.3 227.4,220.4 227.5,220.5 227.6,220.5 227.7,220.6 227.8,220.7 
		227.9,220.7 228,220.8 228.1,220.8 228.2,220.9 228.4,220.9 228.5,220.9 228.6,221 228.7,221 228.8,221 228.9,221.1 229,221.1 
		229.2,221.1 229.3,221.1 229.4,221.1 229.5,221.1 229.6,221.2 229.8,221.2 229.9,221.2 230,221.2 230.1,221.2 230.2,221.1 
		230.4,221.1 230.5,221.1 230.6,221.1 230.7,221.1 230.8,221.1 230.9,221 231.1,221 231.2,221 231.3,220.9 231.4,220.9 231.5,220.9 
		231.6,220.8 231.7,220.8 231.8,220.7 232,220.7 232.1,220.6 232.2,220.5 232.3,220.5 232.4,220.4 232.5,220.3 232.6,220.3 
		232.7,220.2 232.8,220.1 232.8,220 232.9,220 233,219.9 233.1,219.8 233.2,219.7 233.3,219.6 233.3,219.5 233.4,219.4 233.5,219.3 
		233.6,219.2 233.6,219.1 233.7,219 233.8,218.9 233.8,218.8 233.9,218.7 233.9,218.6 234,218.5 234,218.4 234.1,218.3 234.1,218.2 
		234.2,218.1 234.2,218 234.2,217.8 234.3,217.7 234.3,217.6 234.3,217.5 234.3,217.4 234.3,217.3 234.4,217.1 234.4,217 
		234.4,216.9 234.4,216.8 234.4,216.7 	"/>
	<line vector-effect="none" class="st0" x1="99.4" y1="315.7" x2="99.4" y2="320.2"/>
	<line vector-effect="none" class="st0" x1="220.9" y1="306.7" x2="108.4" y2="306.7"/>
	<line vector-effect="none" class="st0" x1="229.9" y1="234.6" x2="229.9" y2="297.7"/>
	<line vector-effect="none" class="st0" x1="220.9" y1="225.6" x2="108.4" y2="225.6"/>
	<line vector-effect="none" class="st0" x1="99.4" y1="212.2" x2="99.4" y2="216.6"/>
	<line vector-effect="none" class="st0" x1="234.4" y1="203.2" x2="108.4" y2="203.2"/>
	<line vector-effect="none" class="st0" x1="243.4" y1="212.2" x2="243.4" y2="320.2"/>
</g>
<g transform="matrix(1,0,0,1,0,0)">
</g>
</svg>
