<?xml version="1.0" encoding="utf-8"?>
<!-- Generator: Adobe Illustrator 27.7.0, SVG Export Plug-In . SVG Version: 6.00 Build 0)  -->
<svg version="1.1" id="Layer_1" xmlns="http://www.w3.org/2000/svg" xmlns:xlink="http://www.w3.org/1999/xlink" x="0px" y="0px"
	 viewBox="0 0 792 612" style="enable-background:new 0 0 792 612;" xml:space="preserve">
<style type="text/css">
	.st0{fill:none;stroke:#FF0000;stroke-width:7.200000e-02;stroke-linecap:round;stroke-linejoin:bevel;stroke-miterlimit:10;}
</style>
<g>
	<g transform="matrix(1,0,0,1,0,0)">
	</g>
	<g transform="matrix(1,0,0,1,0,0)">
	</g>
	<g transform="matrix(1,0,0,1,0,0)">
		<polyline vector-effect="none" class="st0" points="138.5,252.8 138.5,251.8 138.5,250.8 138.6,249.8 138.7,248.8 138.8,247.9 
			138.9,246.9 139.1,245.9 139.2,244.9 139.4,243.9 139.7,243 139.9,242 140.2,241.1 140.5,240.1 140.8,239.2 141.2,238.2 
			141.5,237.3 141.9,236.4 142.3,235.5 142.8,234.6 143.2,233.7 143.7,232.9 144.2,232 144.7,231.2 145.3,230.3 145.8,229.5 
			146.4,228.7 147,227.9 147.6,227.1 148.3,226.4 148.9,225.6 149.6,224.9 150.3,224.2 151,223.5 151.8,222.8 152.5,222.2 
			153.3,221.5 154,220.9 154.8,220.3 155.6,219.7 156.5,219.1 157.3,218.6 158.1,218.1 159,217.6 159.9,217.1 160.7,216.6 
			161.6,216.2 162.5,215.8 163.5,215.4 164.4,215 165.3,214.7 166.3,214.4 167.2,214.1 168.2,213.8 169.1,213.5 170.1,213.3 
			171.1,213.1 172,212.9 173,212.8 174,212.6 175,212.5 176,212.4 177,212.4 178,212.3 179,212.3 179.9,212.3 180.9,212.4 
			181.9,212.4 182.9,212.5 183.9,212.6 184.9,212.8 185.9,212.9 186.9,213.1 187.8,213.3 188.8,213.5 189.8,213.8 190.7,214.1 
			191.7,214.4 192.6,214.7 193.5,215 194.5,215.4 195.4,215.8 196.3,216.2 197.2,216.6 198,217.1 198.9,217.6 199.8,218.1 
			200.6,218.6 201.5,219.1 202.3,219.7 203.1,220.3 203.9,220.9 204.6,221.5 205.4,222.2 206.2,222.8 206.9,223.5 207.6,224.2 
			208.3,224.9 209,225.6 209.6,226.4 210.3,227.1 210.9,227.9 211.5,228.7 212.1,229.5 212.6,230.3 213.2,231.2 213.7,232 
			214.2,232.9 214.7,233.7 215.1,234.6 215.6,235.5 216,236.4 216.4,237.3 216.7,238.2 217.1,239.2 217.4,240.1 217.7,241.1 
			218,242 218.2,243 218.5,243.9 218.7,244.9 218.9,245.9 219,246.9 219.2,247.9 219.3,248.8 219.3,249.8 219.4,250.8 219.4,251.8 
			219.5,252.8 219.4,253.8 219.4,254.8 219.3,255.8 219.3,256.8 219.2,257.8 219,258.8 218.9,259.7 218.7,260.7 218.5,261.7 
			218.2,262.7 218,263.6 217.7,264.6 217.4,265.5 217.1,266.5 216.7,267.4 216.4,268.3 216,269.2 215.6,270.1 215.1,271 
			214.7,271.9 214.2,272.8 213.7,273.6 213.2,274.5 212.6,275.3 212.1,276.1 211.5,276.9 210.9,277.7 210.3,278.5 209.6,279.3 
			209,280 208.3,280.7 207.6,281.5 206.9,282.2 206.2,282.8 205.4,283.5 204.6,284.1 203.9,284.7 203.1,285.3 202.3,285.9 
			201.5,286.5 200.6,287 199.8,287.6 198.9,288.1 198,288.5 197.2,289 196.3,289.4 195.4,289.8 194.5,290.2 193.5,290.6 
			192.6,290.9 191.7,291.3 190.7,291.6 189.8,291.9 188.8,292.1 187.8,292.3 186.9,292.5 185.9,292.7 184.9,292.9 183.9,293 
			182.9,293.1 181.9,293.2 180.9,293.3 179.9,293.3 179,293.3 178,293.3 177,293.3 176,293.2 175,293.1 174,293 173,292.9 
			172,292.7 171.1,292.5 170.1,292.3 169.1,292.1 168.2,291.9 167.2,291.6 166.3,291.3 165.3,290.9 164.4,290.6 163.5,290.2 
			162.5,289.8 161.6,289.4 160.7,289 159.9,288.5 159,288.1 158.1,287.6 157.3,287 156.5,286.5 155.6,285.9 154.8,285.3 154,284.7 
			153.3,284.1 152.5,283.5 151.8,282.8 151,282.2 150.3,281.5 149.6,280.7 148.9,280 148.3,279.3 147.6,278.5 147,277.7 
			146.4,276.9 145.8,276.1 145.3,275.3 144.7,274.5 144.2,273.6 143.7,272.8 143.2,271.9 142.8,271 142.3,270.1 141.9,269.2 
			141.5,268.3 141.2,267.4 140.8,266.5 140.5,265.5 140.2,264.6 139.9,263.6 139.7,262.7 139.4,261.7 139.2,260.7 139.1,259.7 
			138.9,258.8 138.8,257.8 138.7,256.8 138.6,255.8 138.5,254.8 138.5,253.8 138.5,252.8 		"/>
		<polyline vector-effect="none" class="st0" points="113.4,203.3 113.4,203.1 113.4,203 113.4,202.8 113.4,202.6 113.4,202.5 
			113.4,202.3 113.5,202.1 113.5,201.9 113.5,201.8 113.6,201.6 113.6,201.4 113.7,201.3 113.7,201.1 113.8,200.9 113.8,200.8 
			113.9,200.6 114,200.4 114,200.3 114.1,200.1 114.2,200 114.3,199.8 114.4,199.7 114.5,199.5 114.6,199.4 114.7,199.2 
			114.8,199.1 114.9,199 115,198.8 115.1,198.7 115.2,198.6 115.3,198.4 115.4,198.3 115.6,198.2 115.7,198.1 115.8,198 116,197.8 
			116.1,197.7 116.2,197.6 116.4,197.5 116.5,197.4 116.7,197.3 116.8,197.2 117,197.2 117.1,197.1 117.3,197 117.4,196.9 
			117.6,196.8 117.7,196.8 117.9,196.7 118.1,196.6 118.2,196.6 118.4,196.5 118.6,196.5 118.7,196.4 118.9,196.4 119.1,196.4 
			119.2,196.3 119.4,196.3 119.6,196.3 119.8,196.3 119.9,196.3 120.1,196.2 120.3,196.2 120.5,196.2 120.6,196.2 120.8,196.2 
			121,196.3 121.1,196.3 121.3,196.3 121.5,196.3 121.7,196.3 121.8,196.4 122,196.4 122.2,196.4 122.3,196.5 122.5,196.5 
			122.7,196.6 122.8,196.6 123,196.7 123.2,196.8 123.3,196.8 123.5,196.9 123.6,197 123.8,197.1 123.9,197.2 124.1,197.2 
			124.2,197.3 124.4,197.4 124.5,197.5 124.7,197.6 124.8,197.7 125,197.8 125.1,198 125.2,198.1 125.3,198.2 125.5,198.3 
			125.6,198.4 125.7,198.6 125.8,198.7 125.9,198.8 126,199 126.1,199.1 126.2,199.2 126.3,199.4 126.4,199.5 126.5,199.7 
			126.6,199.8 126.7,200 126.8,200.1 126.9,200.3 126.9,200.4 127,200.6 127.1,200.8 127.1,200.9 127.2,201.1 127.2,201.3 
			127.3,201.4 127.3,201.6 127.4,201.8 127.4,201.9 127.4,202.1 127.5,202.3 127.5,202.5 127.5,202.6 127.5,202.8 127.5,203 
			127.5,203.1 127.5,203.3 127.5,203.5 127.5,203.7 127.5,203.8 127.5,204 127.5,204.2 127.5,204.4 127.4,204.5 127.4,204.7 
			127.4,204.9 127.3,205 127.3,205.2 127.2,205.4 127.2,205.5 127.1,205.7 127.1,205.9 127,206 126.9,206.2 126.9,206.3 
			126.8,206.5 126.7,206.7 126.6,206.8 126.5,207 126.4,207.1 126.3,207.3 126.2,207.4 126.1,207.5 126,207.7 125.9,207.8 
			125.8,207.9 125.7,208.1 125.6,208.2 125.5,208.3 125.3,208.5 125.2,208.6 125.1,208.7 125,208.8 124.8,208.9 124.7,209 
			124.5,209.1 124.4,209.2 124.2,209.3 124.1,209.4 123.9,209.5 123.8,209.6 123.6,209.6 123.5,209.7 123.3,209.8 123.2,209.9 
			123,209.9 122.8,210 122.7,210 122.5,210.1 122.3,210.1 122.2,210.2 122,210.2 121.8,210.3 121.7,210.3 121.5,210.3 121.3,210.4 
			121.1,210.4 121,210.4 120.8,210.4 120.6,210.4 120.5,210.4 120.3,210.4 120.1,210.4 119.9,210.4 119.8,210.4 119.6,210.4 
			119.4,210.3 119.2,210.3 119.1,210.3 118.9,210.2 118.7,210.2 118.6,210.1 118.4,210.1 118.2,210 118.1,210 117.9,209.9 
			117.7,209.9 117.6,209.8 117.4,209.7 117.3,209.6 117.1,209.6 117,209.5 116.8,209.4 116.7,209.3 116.5,209.2 116.4,209.1 
			116.2,209 116.1,208.9 116,208.8 115.8,208.7 115.7,208.6 115.6,208.5 115.4,208.3 115.3,208.2 115.2,208.1 115.1,207.9 
			115,207.8 114.9,207.7 114.8,207.5 114.7,207.4 114.6,207.3 114.5,207.1 114.4,207 114.3,206.8 114.2,206.7 114.1,206.5 
			114,206.3 114,206.2 113.9,206 113.8,205.9 113.8,205.7 113.7,205.5 113.7,205.4 113.6,205.2 113.6,205 113.5,204.9 113.5,204.7 
			113.5,204.5 113.4,204.4 113.4,204.2 113.4,204 113.4,203.8 113.4,203.7 113.4,203.5 113.4,203.3 		"/>
		<polyline vector-effect="none" class="st0" points="230.4,302.3 230.4,302.1 230.4,302 230.4,301.8 230.4,301.6 230.4,301.4 
			230.4,301.3 230.5,301.1 230.5,300.9 230.5,300.8 230.6,300.6 230.6,300.4 230.7,300.3 230.7,300.1 230.8,299.9 230.8,299.8 
			230.9,299.6 231,299.4 231,299.3 231.1,299.1 231.2,299 231.3,298.8 231.4,298.7 231.5,298.5 231.6,298.4 231.7,298.2 
			231.8,298.1 231.9,298 232,297.8 232.1,297.7 232.2,297.6 232.3,297.4 232.4,297.3 232.6,297.2 232.7,297.1 232.8,297 233,296.8 
			233.1,296.7 233.2,296.6 233.4,296.5 233.5,296.4 233.7,296.3 233.8,296.2 234,296.2 234.1,296.1 234.3,296 234.4,295.9 
			234.6,295.8 234.7,295.8 234.9,295.7 235.1,295.6 235.2,295.6 235.4,295.5 235.6,295.5 235.7,295.4 235.9,295.4 236.1,295.4 
			236.2,295.3 236.4,295.3 236.6,295.3 236.8,295.3 236.9,295.3 237.1,295.2 237.3,295.2 237.5,295.2 237.6,295.2 237.8,295.2 
			238,295.3 238.1,295.3 238.3,295.3 238.5,295.3 238.7,295.3 238.8,295.4 239,295.4 239.2,295.4 239.3,295.5 239.5,295.5 
			239.7,295.6 239.8,295.6 240,295.7 240.2,295.8 240.3,295.8 240.5,295.9 240.6,296 240.8,296.1 240.9,296.2 241.1,296.2 
			241.2,296.3 241.4,296.4 241.5,296.5 241.7,296.6 241.8,296.7 242,296.8 242.1,297 242.2,297.1 242.3,297.2 242.5,297.3 
			242.6,297.4 242.7,297.6 242.8,297.7 242.9,297.8 243,298 243.1,298.1 243.2,298.2 243.3,298.4 243.4,298.5 243.5,298.7 
			243.6,298.8 243.7,299 243.8,299.1 243.9,299.3 243.9,299.4 244,299.6 244.1,299.8 244.1,299.9 244.2,300.1 244.2,300.3 
			244.3,300.4 244.3,300.6 244.4,300.8 244.4,300.9 244.4,301.1 244.5,301.3 244.5,301.4 244.5,301.6 244.5,301.8 244.5,302 
			244.5,302.1 244.5,302.3 244.5,302.5 244.5,302.7 244.5,302.8 244.5,303 244.5,303.2 244.5,303.4 244.4,303.5 244.4,303.7 
			244.4,303.9 244.3,304 244.3,304.2 244.2,304.4 244.2,304.5 244.1,304.7 244.1,304.9 244,305 243.9,305.2 243.9,305.3 
			243.8,305.5 243.7,305.7 243.6,305.8 243.5,306 243.4,306.1 243.3,306.3 243.2,306.4 243.1,306.5 243,306.7 242.9,306.8 
			242.8,306.9 242.7,307.1 242.6,307.2 242.5,307.3 242.3,307.4 242.2,307.6 242.1,307.7 242,307.8 241.8,307.9 241.7,308 
			241.5,308.1 241.4,308.2 241.2,308.3 241.1,308.4 240.9,308.5 240.8,308.6 240.6,308.6 240.5,308.7 240.3,308.8 240.2,308.9 
			240,308.9 239.8,309 239.7,309 239.5,309.1 239.3,309.1 239.2,309.2 239,309.2 238.8,309.3 238.7,309.3 238.5,309.3 238.3,309.4 
			238.1,309.4 238,309.4 237.8,309.4 237.6,309.4 237.5,309.4 237.3,309.4 237.1,309.4 236.9,309.4 236.8,309.4 236.6,309.4 
			236.4,309.3 236.2,309.3 236.1,309.3 235.9,309.2 235.7,309.2 235.6,309.1 235.4,309.1 235.2,309 235.1,309 234.9,308.9 
			234.7,308.9 234.6,308.8 234.4,308.7 234.3,308.6 234.1,308.6 234,308.5 233.8,308.4 233.7,308.3 233.5,308.2 233.4,308.1 
			233.2,308 233.1,307.9 233,307.8 232.8,307.7 232.7,307.6 232.6,307.4 232.4,307.3 232.3,307.2 232.2,307.1 232.1,306.9 
			232,306.8 231.9,306.7 231.8,306.5 231.7,306.4 231.6,306.3 231.5,306.1 231.4,306 231.3,305.8 231.2,305.7 231.1,305.5 
			231,305.3 231,305.2 230.9,305 230.8,304.9 230.8,304.7 230.7,304.5 230.7,304.4 230.6,304.2 230.6,304 230.5,303.9 230.5,303.7 
			230.5,303.5 230.4,303.4 230.4,303.2 230.4,303 230.4,302.8 230.4,302.7 230.4,302.5 230.4,302.3 		"/>
		<line vector-effect="none" class="st0" x1="107" y1="306.8" x2="107" y2="198.8"/>
		<polyline vector-effect="none" class="st0" points="116,189.8 115.7,189.8 115.5,189.8 115.3,189.8 115.1,189.9 114.9,189.9 
			114.6,189.9 114.4,190 114.2,190 114,190 113.8,190.1 113.6,190.1 113.3,190.2 113.1,190.3 112.9,190.3 112.7,190.4 112.5,190.5 
			112.3,190.6 112.1,190.7 111.9,190.8 111.7,190.9 111.5,191 111.3,191.1 111.1,191.2 111,191.3 110.8,191.5 110.6,191.6 
			110.4,191.7 110.2,191.9 110.1,192 109.9,192.1 109.7,192.3 109.6,192.5 109.4,192.6 109.3,192.8 109.1,192.9 109,193.1 
			108.9,193.3 108.7,193.5 108.6,193.6 108.5,193.8 108.4,194 108.2,194.2 108.1,194.4 108,194.6 107.9,194.8 107.8,195 
			107.7,195.2 107.6,195.4 107.6,195.6 107.5,195.8 107.4,196 107.3,196.2 107.3,196.4 107.2,196.6 107.2,196.8 107.1,197.1 
			107.1,197.3 107.1,197.5 107,197.7 107,197.9 107,198.2 107,198.4 107,198.6 107,198.8 		"/>
		<line vector-effect="none" class="st0" x1="242" y1="189.8" x2="116" y2="189.8"/>
		<polyline vector-effect="none" class="st0" points="251,198.8 251,198.6 250.9,198.4 250.9,198.2 250.9,197.9 250.9,197.7 
			250.9,197.5 250.8,197.3 250.8,197.1 250.7,196.8 250.7,196.6 250.6,196.4 250.6,196.2 250.5,196 250.4,195.8 250.4,195.6 
			250.3,195.4 250.2,195.2 250.1,195 250,194.8 249.9,194.6 249.8,194.4 249.7,194.2 249.6,194 249.4,193.8 249.3,193.6 
			249.2,193.5 249.1,193.3 248.9,193.1 248.8,192.9 248.6,192.8 248.5,192.6 248.3,192.5 248.2,192.3 248,192.1 247.8,192 
			247.7,191.9 247.5,191.7 247.3,191.6 247.1,191.5 247,191.3 246.8,191.2 246.6,191.1 246.4,191 246.2,190.9 246,190.8 
			245.8,190.7 245.6,190.6 245.4,190.5 245.2,190.4 245,190.3 244.8,190.3 244.6,190.2 244.4,190.1 244.1,190.1 243.9,190 
			243.7,190 243.5,190 243.3,189.9 243.1,189.9 242.8,189.9 242.6,189.8 242.4,189.8 242.2,189.8 242,189.8 		"/>
		<line vector-effect="none" class="st0" x1="251" y1="306.8" x2="251" y2="198.8"/>
		<polyline vector-effect="none" class="st0" points="242,315.8 242.2,315.8 242.4,315.8 242.6,315.8 242.8,315.8 243.1,315.8 
			243.3,315.7 243.5,315.7 243.7,315.6 243.9,315.6 244.1,315.5 244.4,315.5 244.6,315.4 244.8,315.4 245,315.3 245.2,315.2 
			245.4,315.1 245.6,315 245.8,315 246,314.9 246.2,314.8 246.4,314.6 246.6,314.5 246.8,314.4 247,314.3 247.1,314.2 247.3,314 
			247.5,313.9 247.7,313.8 247.8,313.6 248,313.5 248.2,313.3 248.3,313.2 248.5,313 248.6,312.9 248.8,312.7 248.9,312.5 
			249.1,312.4 249.2,312.2 249.3,312 249.4,311.8 249.6,311.6 249.7,311.4 249.8,311.3 249.9,311.1 250,310.9 250.1,310.7 
			250.2,310.5 250.3,310.3 250.4,310.1 250.4,309.8 250.5,309.6 250.6,309.4 250.6,309.2 250.7,309 250.7,308.8 250.8,308.6 
			250.8,308.4 250.9,308.1 250.9,307.9 250.9,307.7 250.9,307.5 250.9,307.3 251,307 251,306.8 		"/>
		<line vector-effect="none" class="st0" x1="242" y1="315.8" x2="116" y2="315.8"/>
		<polyline vector-effect="none" class="st0" points="107,306.8 107,307 107,307.3 107,307.5 107,307.7 107,307.9 107.1,308.1 
			107.1,308.4 107.1,308.6 107.2,308.8 107.2,309 107.3,309.2 107.3,309.4 107.4,309.6 107.5,309.8 107.6,310.1 107.6,310.3 
			107.7,310.5 107.8,310.7 107.9,310.9 108,311.1 108.1,311.3 108.2,311.4 108.4,311.6 108.5,311.8 108.6,312 108.7,312.2 
			108.9,312.4 109,312.5 109.1,312.7 109.3,312.9 109.4,313 109.6,313.2 109.7,313.3 109.9,313.5 110.1,313.6 110.2,313.8 
			110.4,313.9 110.6,314 110.8,314.2 111,314.3 111.1,314.4 111.3,314.5 111.5,314.6 111.7,314.8 111.9,314.9 112.1,315 112.3,315 
			112.5,315.1 112.7,315.2 112.9,315.3 113.1,315.4 113.3,315.4 113.6,315.5 113.8,315.5 114,315.6 114.2,315.6 114.4,315.7 
			114.6,315.7 114.9,315.8 115.1,315.8 115.3,315.8 115.5,315.8 115.7,315.8 116,315.8 		"/>
	</g>
	<g transform="matrix(1,0,0,1,0,0)">
	</g>
</g>
</svg>
